<svg width="1048" height="192" viewBox="0 0 1048 192" fill="none" xmlns="http://www.w3.org/2000/svg">
<g filter="url(#filter0_d)">
<path d="M149.9 35H117.14L57.26 78.56V35H35.66V119H57.26V102.92L83.06 84.08L120.02 119H149.9L99.02 72.32L149.9 35ZM223.03 48.32L195.43 106.64L165.19 48.32H142.39L178.99 119H189.55L175.27 149H197.95L245.71 48.32H223.03ZM307.576 47.12C294.376 47.12 281.896 50.84 271.336 60.32V48.32H250.816V119H271.336V76.64C283.816 66.92 297.016 64.28 308.536 64.28C314.536 64.28 319.936 65 326.656 66.68V49.52C321.856 48.32 315.976 47.12 307.576 47.12ZM407.053 48.32V59.72C399.973 51.8 388.093 47.12 371.293 47.12C347.053 47.12 329.772 57.68 329.772 82.64C329.772 107.6 347.053 118.16 371.293 118.16C387.973 118.16 399.853 113.48 407.053 105.56C406.213 123.68 398.293 131.84 377.053 131.84C361.453 131.84 345.613 128.36 337.333 126.8V143.36C344.173 145.16 361.092 149 381.613 149C408.373 149 427.693 136.52 427.693 107.72V48.32H407.053ZM378.733 101C359.413 101 350.293 95.6 350.293 82.64C350.293 69.68 359.413 64.28 378.733 64.28C398.053 64.28 407.053 69.68 407.053 82.64C407.053 95.6 398.053 101 378.733 101ZM514.123 48.32L486.523 106.64L456.283 48.32H433.483L470.083 119H480.643L466.363 149H489.043L536.803 48.32H514.123ZM624.018 48.32H540.738V65.48H593.658L540.738 101.84V119H624.018V101.84H571.098L624.018 65.48V48.32ZM629.89 94.16C629.89 116.72 655.09 120.2 682.33 120.2C709.57 120.2 727.57 116.72 727.57 96.8C727.57 77.96 708.73 77.24 681.13 75.2C656.77 73.4 653.05 72.68 653.05 68.24C653.05 64.16 658.57 62.72 678.01 62.72C697.09 62.72 704.53 64.16 704.53 70.04H725.17C725.17 50.6 705.85 47.12 679.21 47.12C654.01 47.12 632.41 50.6 632.41 69.08C632.41 86.12 647.65 88.52 678.73 90.32C703.57 91.88 706.93 92.24 706.93 97.64C706.93 103.16 703.33 104.6 681.13 104.6C658.21 104.6 650.41 101.72 650.41 94.16H629.89ZM802.336 65.48V48.32H768.856V27.8L748.216 33.68V48.32H729.616V65.48H748.216V97.76C748.216 113.36 759.976 120.2 778.216 120.2C787.696 120.2 795.496 119.6 802.336 118.4V101.84C794.056 103.04 790.456 103.04 783.976 103.04C771.496 103.04 768.856 99.56 768.856 85.88V65.48H802.336ZM858.152 47.12C843.392 47.12 829.232 49.76 814.832 54.44L822.152 69.44C836.672 65.12 847.952 64.28 857.192 64.28C866.792 64.28 884.072 65.36 884.072 78.8C874.832 75.68 863.672 73.76 851.552 73.76C829.112 73.76 808.952 79.52 808.952 97.88C808.952 113.84 821.312 120.2 841.112 120.2C857.792 120.2 871.592 116.36 884.072 110.24V119H904.712V83.36C904.472 56.6 887.672 47.12 858.152 47.12ZM884.072 97.04C873.512 101.6 858.152 105.08 846.992 105.08C836.312 105.08 829.472 104.48 829.472 97.04C829.472 89.84 838.712 87.2 854.072 87.2C867.152 87.2 876.872 89.24 884.072 91.52V97.04ZM975.543 47.12C958.383 47.12 944.463 52.76 934.383 60.68V48.32H913.863V119H934.383V79.4C940.743 71.96 955.623 64.88 969.423 64.88C986.343 64.88 991.383 72.68 991.383 87.68V119H1012.02L1012.26 79.88C1012.02 53.84 994.383 47.12 975.543 47.12Z" fill="#E3DDCF"/>
</g>
<defs>
<filter id="filter0_d" x="0.659973" y="0.800049" width="1046.6" height="191.2" filterUnits="userSpaceOnUse" color-interpolation-filters="sRGB">
<feFlood flood-opacity="0" result="BackgroundImageFix"/>
<feColorMatrix in="SourceAlpha" type="matrix" values="0 0 0 0 0 0 0 0 0 0 0 0 0 0 0 0 0 0 127 0"/>
<feOffset dy="8"/>
<feGaussianBlur stdDeviation="17.5"/>
<feColorMatrix type="matrix" values="0 0 0 0 0 0 0 0 0 0 0 0 0 0 0 0 0 0 0.16 0"/>
<feBlend mode="normal" in2="BackgroundImageFix" result="effect1_dropShadow"/>
<feBlend mode="normal" in="SourceGraphic" in2="effect1_dropShadow" result="shape"/>
</filter>
</defs>
</svg>
