<svg width="101" height="58" viewBox="0 0 101 58" fill="none" xmlns="http://www.w3.org/2000/svg">
<path d="M8.04 15.968L5.376 18.704V23H2.256V6.2H5.376V14.816L13.68 6.2H17.184L10.128 13.712L17.616 23H13.968L8.04 15.968ZM25.7931 17.072V23H22.6731V17.12L16.0731 6.2H19.4091L24.3291 14.384L29.2971 6.2H32.3691L25.7931 17.072ZM45.1699 23L41.7379 18.08C41.5939 18.096 41.3779 18.104 41.0899 18.104H37.2979V23H34.1779V6.2H41.0899C42.5459 6.2 43.8099 6.44 44.8819 6.92C45.9699 7.4 46.8019 8.088 47.3779 8.984C47.9539 9.88 48.2419 10.944 48.2419 12.176C48.2419 13.44 47.9299 14.528 47.3059 15.44C46.6979 16.352 45.8179 17.032 44.6659 17.48L48.5299 23H45.1699ZM45.0979 12.176C45.0979 11.104 44.7459 10.28 44.0419 9.704C43.3379 9.128 42.3059 8.84 40.9459 8.84H37.2979V15.536H40.9459C42.3059 15.536 43.3379 15.248 44.0419 14.672C44.7459 14.08 45.0979 13.248 45.0979 12.176ZM63.2046 14.408H66.1566V21.104C65.2926 21.792 64.2846 22.32 63.1326 22.688C61.9806 23.056 60.7966 23.24 59.5806 23.24C57.8686 23.24 56.3246 22.872 54.9486 22.136C53.5726 21.384 52.4926 20.352 51.7086 19.04C50.9246 17.728 50.5326 16.248 50.5326 14.6C50.5326 12.952 50.9246 11.472 51.7086 10.16C52.4926 8.848 53.5726 7.824 54.9486 7.088C56.3406 6.336 57.9006 5.96 59.6286 5.96C61.0366 5.96 62.3166 6.192 63.4686 6.656C64.6206 7.12 65.5886 7.8 66.3726 8.696L64.4046 10.616C63.1246 9.336 61.5806 8.696 59.7726 8.696C58.5886 8.696 57.5326 8.944 56.6046 9.44C55.6926 9.936 54.9726 10.632 54.4446 11.528C53.9326 12.424 53.6766 13.448 53.6766 14.6C53.6766 15.72 53.9326 16.728 54.4446 17.624C54.9726 18.52 55.6926 19.224 56.6046 19.736C57.5326 20.248 58.5806 20.504 59.7486 20.504C61.0606 20.504 62.2126 20.216 63.2046 19.64V14.408ZM77.5196 17.072V23H74.3996V17.12L67.7996 6.2H71.1356L76.0556 14.384L81.0236 6.2H84.0956L77.5196 17.072ZM99.1948 20.36V23H84.8668V20.912L94.7548 8.84H85.0348V6.2H98.8828V8.288L88.9948 20.36H99.1948ZM14.856 49.384V52H2.256V35.2H14.52V37.816H5.376V42.184H13.488V44.752H5.376V49.384H14.856ZM28.7306 52L24.1706 45.616L19.6586 52H16.1066L22.3466 43.432L16.4426 35.2H19.9706L24.2666 41.176L28.5146 35.2H31.8986L26.0186 43.312L32.3306 52H28.7306ZM41.1368 35.2C42.5928 35.2 43.8568 35.44 44.9288 35.92C46.0168 36.4 46.8488 37.088 47.4248 37.984C48.0008 38.88 48.2888 39.944 48.2888 41.176C48.2888 42.392 48.0008 43.456 47.4248 44.368C46.8488 45.264 46.0168 45.952 44.9288 46.432C43.8568 46.912 42.5928 47.152 41.1368 47.152H37.3448V52H34.2248V35.2H41.1368ZM40.9928 44.512C42.3528 44.512 43.3848 44.224 44.0887 43.648C44.7928 43.072 45.1448 42.248 45.1448 41.176C45.1448 40.104 44.7928 39.28 44.0887 38.704C43.3848 38.128 42.3528 37.84 40.9928 37.84H37.3448V44.512H40.9928ZM59.4868 52.24C57.7748 52.24 56.2308 51.872 54.8548 51.136C53.4788 50.384 52.3988 49.352 51.6148 48.04C50.8308 46.712 50.4388 45.232 50.4388 43.6C50.4388 41.968 50.8308 40.496 51.6148 39.184C52.3988 37.856 53.4788 36.824 54.8548 36.088C56.2308 35.336 57.7748 34.96 59.4868 34.96C61.1988 34.96 62.7428 35.336 64.1188 36.088C65.4948 36.824 66.5748 37.848 67.3588 39.16C68.1428 40.472 68.5348 41.952 68.5348 43.6C68.5348 45.248 68.1428 46.728 67.3588 48.04C66.5748 49.352 65.4948 50.384 64.1188 51.136C62.7428 51.872 61.1988 52.24 59.4868 52.24ZM59.4868 49.504C60.6068 49.504 61.6148 49.256 62.5108 48.76C63.4068 48.248 64.1108 47.544 64.6228 46.648C65.1348 45.736 65.3908 44.72 65.3908 43.6C65.3908 42.48 65.1348 41.472 64.6228 40.576C64.1108 39.664 63.4068 38.96 62.5108 38.464C61.6148 37.952 60.6068 37.696 59.4868 37.696C58.3668 37.696 57.3588 37.952 56.4628 38.464C55.5668 38.96 54.8628 39.664 54.3508 40.576C53.8388 41.472 53.5828 42.48 53.5828 43.6C53.5828 44.72 53.8388 45.736 54.3508 46.648C54.8628 47.544 55.5668 48.248 56.4628 48.76C57.3588 49.256 58.3668 49.504 59.4868 49.504Z" fill="white"/>
<path d="M79.9011 37.8041L94.0971 52" stroke="white" stroke-width="2" stroke-linecap="round"/>
<path d="M82.6877 35.1253L96.8837 49.3213" stroke="white" stroke-width="2" stroke-linecap="round"/>
<path d="M85.804 32.2723L100 46.4683" stroke="white" stroke-width="2" stroke-linecap="round"/>
<path d="M99.0692 37.8041L84.8732 52" stroke="white" stroke-width="2" stroke-linecap="round"/>
<path d="M96.3091 34.8193L82.1132 49.0152" stroke="white" stroke-width="2" stroke-linecap="round"/>
<path d="M93.354 32.2723L79.158 46.4683" stroke="white" stroke-width="2" stroke-linecap="round"/>
</svg>
