<svg width="64" height="64" viewBox="0 0 64 64" fill="none" xmlns="http://www.w3.org/2000/svg">
<g clip-path="url(#clip0)">
<path d="M20.5714 0H2.28576C1.02335 0 0 1.02335 0 2.28576V20.5714C0 21.8338 1.02335 22.8572 2.28576 22.8572H20.5714C21.8338 22.8572 22.8572 21.8338 22.8572 20.5714V2.28576C22.8572 1.02335 21.8338 0 20.5714 0ZM18.2857 18.2857H4.57138V4.57138H18.2857V18.2857Z" fill="white"/>
<path d="M11.4285 6.85715C10.1661 6.85715 9.14276 7.88049 9.14276 9.1429V13.7143C9.14276 14.9767 10.1661 16 11.4285 16C12.6909 16 13.7143 14.9767 13.7143 13.7143V9.1429C13.7143 7.88049 12.6909 6.85715 11.4285 6.85715Z" fill="white"/>
<path d="M20.5714 41.1428H2.28576C1.02335 41.1428 0 42.1662 0 43.4286V61.7142C0 62.9766 1.02335 64 2.28576 64H20.5714C21.8338 64 22.8572 62.9766 22.8572 61.7142V43.4286C22.8572 42.1662 21.8338 41.1428 20.5714 41.1428ZM18.2857 59.4285H4.57138V45.7142H18.2857V59.4285Z" fill="white"/>
<path d="M11.4285 48C10.1661 48 9.14276 49.0233 9.14276 50.2857V54.8571C9.14276 56.1195 10.1661 57.1429 11.4285 57.1429C12.6909 57.1429 13.7143 56.1195 13.7143 54.8571V50.2857C13.7143 49.0233 12.6909 48 11.4285 48Z" fill="white"/>
<path d="M61.7142 41.1428H43.4286C42.1662 41.1428 41.1428 42.1662 41.1428 43.4286V61.7142C41.1428 62.9766 42.1662 64 43.4286 64H61.7142C62.9766 64 64 62.9766 64 61.7142V43.4286C64 42.1662 62.9766 41.1428 61.7142 41.1428ZM59.4285 59.4285H45.7142V45.7142H59.4285V59.4285Z" fill="white"/>
<path d="M52.5713 48C51.3089 48 50.2856 49.0233 50.2856 50.2857V54.8571C50.2856 56.1195 51.3089 57.1429 52.5713 57.1429C53.8337 57.1429 54.8571 56.1195 54.8571 54.8571V50.2857C54.8571 49.0233 53.8337 48 52.5713 48Z" fill="white"/>
<path d="M61.7142 0H50.2857C49.0233 0 47.9999 1.02335 47.9999 2.28576C47.9999 3.54816 49.0233 4.57151 50.2857 4.57151H59.4286V13.7143C59.4286 14.9767 60.4519 16 61.7143 16C62.9768 16 64.0001 14.9767 64.0001 13.7143V2.28576C64 1.02335 62.9766 0 61.7142 0Z" fill="white"/>
<path d="M27.4285 50.2857C26.1661 50.2857 25.1428 51.3091 25.1428 52.5715V61.7143C25.1428 62.9767 26.1661 64 27.4285 64C28.6909 64 29.7143 62.9767 29.7143 61.7143V52.5714C29.7143 51.3091 28.6909 50.2857 27.4285 50.2857Z" fill="white"/>
<path d="M38.857 22.8572H27.4285C26.1661 22.8572 25.1428 23.8805 25.1428 25.1429V34.2857H18.2856C17.0232 34.2857 15.9999 35.309 15.9999 36.5714C15.9999 37.8338 17.0232 38.8572 18.2856 38.8572H27.4285C28.6909 38.8572 29.7143 37.8338 29.7143 36.5714V27.4286H38.8572C40.1196 27.4286 41.1429 26.4052 41.1429 25.1428C41.1428 23.8805 40.1195 22.8572 38.857 22.8572Z" fill="white"/>
<path d="M20.5714 27.4286H11.4285C10.1661 27.4286 9.14276 28.4519 9.14276 29.7143C9.14276 30.9768 10.1661 32.0001 11.4285 32.0001H20.5714C21.8338 32.0001 22.8572 30.9768 22.8572 29.7143C22.8572 28.4519 21.8338 27.4286 20.5714 27.4286Z" fill="white"/>
<path d="M38.8571 16H29.7142V9.1429C29.7142 7.88049 28.6908 6.85715 27.4284 6.85715C26.166 6.85715 25.1426 7.88049 25.1426 9.1429V18.2858C25.1426 19.5482 26.166 20.5716 27.4284 20.5716H38.8569C40.1193 20.5716 41.1427 19.5482 41.1427 18.2858C41.1428 17.0234 40.1195 16 38.8571 16Z" fill="white"/>
<path d="M54.8571 9.14289H45.7142V2.28576C45.7142 1.02335 44.6908 0 43.4286 0H27.4285C26.1661 0 25.1428 1.02335 25.1428 2.28576C25.1428 3.54817 26.1661 4.57151 27.4285 4.57151H41.1428V11.4287C41.1428 12.6911 42.1661 13.7144 43.4286 13.7144H54.8571C56.1195 13.7144 57.1428 12.6911 57.1428 11.4287C57.1428 10.1662 56.1195 9.14289 54.8571 9.14289Z" fill="white"/>
<path d="M45.7142 16C44.4518 16 43.4285 17.0234 43.4285 18.2858V27.4285C43.4285 28.691 44.4518 29.7143 45.7142 29.7143C46.9766 29.7143 48 28.691 48 27.4285V18.2857C48 17.0234 46.9766 16 45.7142 16Z" fill="white"/>
<path d="M61.7142 18.2856H52.5713C51.3089 18.2856 50.2856 19.309 50.2856 20.5714C50.2856 21.8338 51.3089 22.8572 52.5713 22.8572H61.7142C62.9766 22.8572 64 21.8338 64 20.5714C64 19.309 62.9766 18.2856 61.7142 18.2856Z" fill="white"/>
<path d="M61.7142 25.1428H52.5713C51.3089 25.1428 50.2856 26.1661 50.2856 27.4285C50.2856 28.691 51.3089 29.7143 52.5713 29.7143H59.4285V36.5714C59.4285 37.8338 60.4518 38.8572 61.7142 38.8572C62.9766 38.8572 64 37.8338 64 36.5714V27.4285C64 26.1661 62.9766 25.1428 61.7142 25.1428Z" fill="white"/>
<path d="M54.8571 31.9999H43.4286C42.1662 31.9999 41.1428 33.0233 41.1428 34.2857C41.1428 35.5481 42.1662 36.5715 43.4286 36.5715H54.8571C56.1195 36.5715 57.1429 35.5481 57.1429 34.2857C57.1429 33.0233 56.1195 31.9999 54.8571 31.9999Z" fill="white"/>
<path d="M36.5714 43.4286H27.4285C26.1661 43.4286 25.1428 44.4519 25.1428 45.7143C25.1428 46.9768 26.1661 48 27.4285 48H34.2857V61.7142C34.2857 62.9767 35.309 64 36.5714 64C37.8338 64 38.8572 62.9767 38.8572 61.7142V45.7142C38.857 44.4519 37.8337 43.4286 36.5714 43.4286Z" fill="white"/>
<path d="M36.5714 36.5714H34.2857C33.0233 36.5714 31.9999 37.5948 31.9999 38.8572C31.9999 40.1196 33.0233 41.1428 34.2857 41.1428H36.5714C37.8338 41.1428 38.8572 40.1195 38.8572 38.8571C38.8572 37.5947 37.8337 36.5714 36.5714 36.5714Z" fill="white"/>
<path d="M36.5714 29.7143H34.2857C33.0233 29.7143 31.9999 30.7377 31.9999 32.0001C31.9999 33.2625 33.0233 34.2857 34.2857 34.2857H36.5714C37.8338 34.2857 38.8572 33.2624 38.8572 31.9999C38.8572 30.7375 37.8337 29.7143 36.5714 29.7143Z" fill="white"/>
<path d="M9.14289 34.2857H2.28576C1.02335 34.2857 0 35.3091 0 36.5715C0 37.8339 1.02335 38.8572 2.28576 38.8572H9.14289C10.4053 38.8572 11.4287 37.8339 11.4287 36.5715C11.4287 35.3091 10.4052 34.2857 9.14289 34.2857Z" fill="white"/>
<path d="M34.2857 6.85715C33.0233 6.85715 31.9999 7.88049 31.9999 9.1429V11.4287C31.9999 12.6911 33.0233 13.7144 34.2857 13.7144C35.5481 13.7144 36.5715 12.6911 36.5715 11.4287V9.1429C36.5715 7.88049 35.5481 6.85715 34.2857 6.85715Z" fill="white"/>
<path d="M4.57138 27.4286H2.28576C1.02335 27.4286 0 28.4519 0 29.7143C0 30.9768 1.02335 32.0001 2.28576 32.0001H4.57151C5.83392 32.0001 6.85727 30.9768 6.85727 29.7143C6.85727 28.4519 5.83379 27.4286 4.57138 27.4286Z" fill="white"/>
</g>
<defs>
<clipPath id="clip0">
<rect width="64" height="64" fill="white"/>
</clipPath>
</defs>
</svg>
